<?xml version="1.0" encoding="UTF-8"?>
<svg id="Layer_1" xmlns="http://www.w3.org/2000/svg" version="1.1" viewBox="0 0 546 130">
  <!-- Generator: Adobe Illustrator 29.6.1, SVG Export Plug-In . SVG Version: 2.1.1 Build 9)  -->
  <defs>
    <style>
      .st0 {
        fill-rule: evenodd;
      }

      .st0, .st1 {
        fill: #fff;
      }
    </style>
  </defs>
  <path class="st0" d="M12.99,78.39c-.17-.07-.33-.14-.5-.21.14-.22.29-.44.44-.67.02.29.04.59.06.88ZM105.71,29.74c-4.67,14.87-20.53,31.42-41.85,41.9-19.56,9.62-38.71,11.68-50.87,6.74.16,1.77.51,3.49,1.05,5.14,6.42,19.42,37.84,22.27,70.17,6.36,24.15-11.88,41.99-30.87,46.79-47.82,1.26,1.81,2.27,3.81,3,6,7.12,21.54-15.93,53.18-51.49,70.68-35.56,17.5-70.16,14.22-77.28-7.32-3.23-9.76-.26-21.6,7.27-33.25-5.62-2.42-9.68-6.38-11.48-11.83C-4.68,49.14,14.24,23.61,43.26,9.33c25.71-12.65,50.72-12.23,60.05-.02-12.27-.55-27.21,2.78-42.35,10.23C31.83,33.89,11.89,58.56,12.93,77.51c9.14-13.83,24.65-27.34,43.79-36.76,17.65-8.68,35.06-12.25,48.99-11.01ZM105.71,29.74c1.69-5.38,1.92-10.54.4-15.11-.65-1.97-1.59-3.74-2.8-5.32,13.93.63,24.41,6.27,27.82,16.6,1.62,4.91,1.49,10.42-.13,16.16-5-7.16-14.01-11.32-25.3-12.33Z"/>
  <path class="st1" d="M472.54,101.93l26.21-75.75h21.03l26.21,75.75h-14.54l-8.15-24.56h-28.08l-8.15,24.56h-14.54ZM499.42,64.93h19.71l-8.15-24.46-.77-6.6h-1.87l-.77,6.6-8.15,24.46Z"/>
  <path class="st1" d="M436.64,101.93V26.19h13.66v75.75h-13.66Z"/>
  <path class="st1" d="M345.61,101.93V26.19h28.41c17.4,0,30.4,8.33,35.57,22.62,1.54,4.54,2.42,9.63,2.42,15.26s-.88,10.82-2.53,15.37c-5.18,14.28-17.95,22.51-35.46,22.51h-28.41ZM359.27,89.38h15.64c10.35,0,17.73-5.74,20.92-14.5,1.21-3.25,1.87-6.82,1.87-10.82s-.66-7.68-1.87-11.04c-3.3-8.66-10.68-14.28-20.92-14.28h-15.64v50.64Z"/>
  <path class="st1" d="M286.79,103.66c-18.72,0-30.51-11.15-30.51-29.32V26.19h14.1v47.72c0,10.5,6.17,16.99,16.41,16.99s16.41-6.49,16.41-16.99V26.19h14.1v48.15c0,18.18-11.89,29.32-30.5,29.32Z"/>
  <path class="st1" d="M184.75,101.93V26.19h46.25v12.55h-32.6v19.04h31.5v12.34h-31.5v19.26h32.6v12.55h-46.25Z"/>
</svg>