<svg width="546" height="130" viewBox="0 0 546 130" fill="none" xmlns="http://www.w3.org/2000/svg">
<path fill-rule="evenodd" clip-rule="evenodd" d="M12.9934 78.3879C12.8258 78.3197 12.6595 78.2502 12.4946 78.1794C12.6381 77.957 12.7833 77.7347 12.9302 77.5124C12.9462 77.8056 12.9673 78.0975 12.9934 78.3879ZM105.709 29.7449C101.037 44.612 85.1748 61.1615 63.8632 71.6476C44.3058 81.2707 25.1496 83.3319 12.9934 78.3879C13.1528 80.1588 13.5005 81.8766 14.0464 83.5277C20.4682 102.951 51.8857 105.8 84.2195 89.8905C108.373 78.0061 126.205 59.016 131.005 42.0714C132.27 43.8809 133.277 45.8819 134.001 48.0715C141.122 69.6103 118.068 101.255 82.5082 118.752C46.9483 136.249 12.3485 132.972 5.22745 111.434C2.00012 101.672 4.97077 89.8347 12.4946 78.1794C6.86971 75.7637 2.81286 71.8007 1.01018 66.3482C-4.67893 49.1406 14.2375 23.6141 43.2611 9.33329C68.968 -3.31556 93.9819 -2.8997 103.316 9.31731C91.0489 8.76395 76.1071 12.1006 60.9643 19.5514C31.8299 33.8867 11.8926 58.5604 12.9302 77.5124C22.0696 63.6821 37.5843 50.169 56.7206 40.7532C74.3668 32.0705 91.7766 28.5034 105.709 29.7449ZM105.709 29.7449C107.4 24.3649 107.626 19.2051 106.114 14.6327C105.464 12.6663 104.521 10.8936 103.316 9.31731C117.243 9.94552 127.723 15.5872 131.137 25.9142C132.762 30.8283 132.631 36.3325 131.005 42.0714C126.006 34.9141 116.999 30.7509 105.709 29.7449Z" fill="black"/>
<path d="M472.544 101.933L498.755 26.1867H519.789L546 101.933H531.463L523.314 77.3695H495.231L487.081 101.933H472.544ZM499.416 64.9255H519.129L510.979 40.4703L510.208 33.8695H508.336L507.565 40.4703L499.416 64.9255Z" fill="black"/>
<path d="M436.643 101.933V26.1867H450.299V101.933H436.643Z" fill="black"/>
<path d="M345.615 101.933V26.1867H374.029C391.429 26.1867 404.424 34.5188 409.6 48.8024C411.142 53.3471 412.023 58.4329 412.023 64.0598C412.023 69.7949 411.142 74.8807 409.49 79.4255C404.314 93.709 391.539 101.933 374.029 101.933H345.615ZM359.271 89.3807H374.91C385.262 89.3807 392.64 83.6456 395.834 74.8807C397.045 71.6344 397.706 68.0635 397.706 64.0598C397.706 60.0561 397.045 56.377 395.834 53.0225C392.53 44.3658 385.151 38.7389 374.91 38.7389H359.271V89.3807Z" fill="black"/>
<path d="M286.786 103.664C268.064 103.664 256.28 92.5187 256.28 74.3396V26.1867H270.377V73.9068C270.377 84.4031 276.544 90.8956 286.786 90.8956C297.028 90.8956 303.195 84.4031 303.195 73.9068V26.1867H317.291V74.3396C317.291 92.5187 305.397 103.664 286.786 103.664Z" fill="black"/>
<path d="M184.746 101.933V26.1867H231V38.7389H198.402V57.7837H229.898V70.1195H198.402V89.3807H231V101.933H184.746Z" fill="black"/>
</svg>
