<svg width="1100" height="764" viewBox="0 0 1100 764" fill="none" xmlns="http://www.w3.org/2000/svg">
<path d="M876.332 758.787L956.141 530.733H1020.19L1100 758.787H1055.74L1030.92 684.832H945.411L920.596 758.787H876.332ZM958.153 647.366H1018.18L993.364 573.737L991.016 553.864H985.315L982.968 573.737L958.153 647.366Z" fill="white"/>
<path d="M767.015 758.787V530.733H808.597V758.787H767.015Z" fill="white"/>
<path d="M489.839 758.787V530.733H576.356C629.339 530.733 668.908 555.819 684.669 598.823C689.364 612.507 692.046 627.819 692.046 644.76C692.046 662.027 689.364 677.339 684.334 691.023C668.573 734.027 629.674 758.787 576.356 758.787H489.839ZM531.421 720.995H579.039C610.56 720.995 633.027 703.728 642.752 677.339C646.441 667.565 648.453 656.814 648.453 644.76C648.453 632.706 646.441 621.629 642.752 611.529C632.692 585.466 610.225 568.524 579.039 568.524H531.421V720.995Z" fill="white"/>
<path d="M310.706 764C253.699 764 217.818 730.443 217.818 675.71V530.733H260.741V674.407C260.741 706.009 279.52 725.557 310.706 725.557C341.892 725.557 360.671 706.009 360.671 674.407V530.733H403.594V675.71C403.594 730.443 367.378 764 310.706 764Z" fill="white"/>
<path d="M0 758.787V530.733H140.841V568.525H41.5815V625.864H137.487V663.004H41.5815V720.996H140.841V758.787H0Z" fill="white"/>
<path fill-rule="evenodd" clip-rule="evenodd" d="M384.151 236.008C383.641 235.803 383.134 235.594 382.632 235.381C383.069 234.711 383.511 234.042 383.958 233.373C384.007 234.255 384.071 235.134 384.151 236.008ZM666.466 89.5553C652.238 134.317 603.939 184.144 539.047 215.715C479.496 244.688 421.166 250.894 384.151 236.008C384.636 241.34 385.695 246.512 387.357 251.483C406.911 309.964 502.576 318.54 601.031 270.64C674.577 234.859 728.875 177.684 743.491 126.667C747.34 132.116 750.41 138.14 752.614 144.733C774.297 209.581 704.098 304.856 595.82 357.536C487.542 410.215 382.187 400.35 360.504 335.502C350.677 306.112 359.722 270.472 382.632 235.381C365.505 228.108 353.152 216.176 347.663 199.76C330.34 147.951 387.939 71.0969 476.315 28.1005C554.591 -9.98242 630.757 -8.73034 659.18 28.0523C621.826 26.3863 576.329 36.4321 530.22 58.865C441.507 102.025 380.799 176.312 383.958 233.373C411.787 191.732 459.029 151.048 517.298 122.699C571.03 96.5572 624.042 85.8173 666.466 89.5553ZM666.466 89.5553C671.615 73.3571 672.302 57.8223 667.699 44.0559C665.719 38.1353 662.847 32.7981 659.18 28.0523C701.586 29.9437 733.497 46.9296 743.893 78.0219C748.84 92.8172 748.442 109.389 743.491 126.667C728.267 105.119 700.842 92.5841 666.466 89.5553Z" fill="white"/>
</svg>
